<?xml version="1.0" encoding="UTF-8" standalone="no"?>
<!-- Created with Inkscape (http://www.inkscape.org/) -->

<svg
   width="210mm"
   height="297mm"
   viewBox="0 0 210 297"
   version="1.1"
   id="svg5"
   xml:space="preserve"
   sodipodi:docname="drawing.svg"
   inkscape:version="1.2.2 (732a01da63, 2022-12-09)"
   xmlns:inkscape="http://www.inkscape.org/namespaces/inkscape"
   xmlns:sodipodi="http://sodipodi.sourceforge.net/DTD/sodipodi-0.dtd"
   xmlns="http://www.w3.org/2000/svg"
   xmlns:svg="http://www.w3.org/2000/svg"><sodipodi:namedview
     id="namedview7"
     pagecolor="#ffffff"
     bordercolor="#000000"
     borderopacity="0.25"
     inkscape:showpageshadow="2"
     inkscape:pageopacity="0.0"
     inkscape:pagecheckerboard="0"
     inkscape:deskcolor="#d1d1d1"
     inkscape:document-units="mm"
     showgrid="false"
     inkscape:zoom="1"
     inkscape:cx="432.5"
     inkscape:cy="563"
     inkscape:window-width="1918"
     inkscape:window-height="2054"
     inkscape:window-x="-10"
     inkscape:window-y="1620"
     inkscape:window-maximized="0"
     inkscape:current-layer="layer1" /><defs
     id="defs2" /><g
     inkscape:label="Layer 1"
     inkscape:groupmode="layer"
     id="layer1"><path
       id="path4190"
       style="fill:#000000;stroke-width:0.0846667"
       d="m 90.143337,90.488015 c -0.0127,-1.78e-4 -0.0271,0.0016 -0.0429,0.0047 -0.0815,0.0156 -0.67178,0.03102 -1.31207,0.03462 l -1.16427,0.0067 v 0.42323 0.42323 h -0.42323 -0.42323 v 0.409278 c 0,0.225073 0.0253,0.434564 0.0563,0.465604 0.031,0.03104 0.22143,0.05633 0.42323,0.05633 h 0.3669 v -0.427881 c 0,-0.302208 0.0287,-0.410556 0.0977,-0.367936 0.0623,0.03852 0.0747,0.02274 0.0341,-0.04289 -0.0491,-0.07948 0.22316,-0.09683 1.19372,-0.07648 l 1.25677,0.02636 0.0424,0.42323 0.0424,0.42323 0.38086,-0.0016 0.38137,-0.0016 0.0444,-0.442867 0.045,-0.442867 h -0.447 -0.447 v -0.457853 c 0,-0.34188 -0.0166,-0.43335 -0.10542,-0.434599 z m -9.50433,0.03566 -0.0253,0.428398 -0.0258,0.428397 h -0.41858 -0.4191 v 0.423747 0.42323 h -0.42323 -0.42323 v 0.888835 0.888834 h -0.45475 -0.45475 l 0.0103,0.868164 0.01,0.867648 0.44442,0.02584 0.44493,0.02532 v 0.842326 0.842326 h 0.41858 0.4191 l 0.0253,0.444417 0.0258,0.444418 h 0.42323 0.42323 l -0.0269,0.444417 -0.0274,0.444417 h 0.4718 0.47181 v 0.423747 0.423234 h 0.42323 0.42323 v 0.4656 0.46561 h 0.42323 0.42375 v 0.42323 0.42323 h 0.4656 0.46561 v 0.42374 0.42323 h 0.42323 0.42323 v 0.41858 0.41858 l 0.40204,0.0258 0.40204,0.0258 0.0253,-0.44442 0.0258,-0.44441 h 0.46147 0.46096 v -0.42323 -0.42375 h 0.41909 0.4191 l 0.0253,-0.44183 0.0258,-0.44184 0.40204,0.0248 0.40204,0.0253 v -0.47233 -0.47181 h 0.46561 0.46612 v -0.423745 -0.42323 h 0.42323 0.42323 v -0.451652 -0.451652 l 0.40204,0.0047 0.40204,0.0041 0.0424,-0.420646 0.0424,-0.420129 0.44442,-0.02584 0.44442,-0.02532 V 96.62564 95.783314 h 0.42374 0.42323 V 94.89448 94.005128 h -0.42323 -0.42374 v -0.888834 -0.888835 h -0.46302 -0.46354 l -0.0238,1.327051 -0.0233,1.327051 -0.38085,0.0062 -0.38086,0.0067 -0.0253,0.438216 -0.0253,0.438216 -0.41961,-0.03824 -0.4191,-0.03772 v 0.467671 0.467155 h -0.4656 -0.46561 v 0.423747 0.42323 h -0.42323 -0.42323 v 0.413928 c 0,0.460835 -0.0509,0.505882 -0.52916,0.466122 -0.31306,-0.02603 -0.31763,-0.02172 -0.32763,0.287838 -0.006,0.172658 -0.003,0.380497 0.005,0.461987 0.0127,0.125377 -0.058,0.147794 -0.46198,0.147794 h -0.47749 l 0.0248,0.40256 0.0253,0.402045 -0.44235,0.0253 -0.44183,0.0258 v -0.427884 -0.427881 h -0.42323 -0.42323 v -0.465604 -0.465605 h -0.47232 -0.47181 l 0.0248,-0.402043 0.0253,-0.402042 -0.44184,-0.02584 -0.44235,-0.02532 v -0.419096 -0.419096 h -0.42323 c -0.48779,0 -0.52861,0.08894 -0.21135,0.457854 0.11636,0.1353 0.21135,0.299682 0.21135,0.365352 0,0.201409 -0.16801,0.447001 -0.30592,0.447001 -0.1013,0 -0.11833,-0.05736 -0.0749,-0.254765 0.0442,-0.200999 0.01,-0.309759 -0.16278,-0.514697 -0.26419,-0.31403 -0.2702,-0.411899 -0.0434,-0.700216 0.10587,-0.134643 0.16451,-0.314526 0.14831,-0.455786 -0.0245,-0.212636 -0.0589,-0.233995 -0.38654,-0.240295 -0.19785,-0.0038 -0.37993,-0.02747 -0.40463,-0.05219 -0.0248,-0.02472 -0.0764,-0.593011 -0.11472,-1.262972 -0.0673,-1.175238 -0.0702,-1.189185 -0.0822,-0.392741 l -0.0124,0.825789 h -0.37672 -0.3762 l 0.0388,-1.206645 c 0.0211,-0.663574 0.038,-1.24502 0.0372,-1.29191 -4.4e-4,-0.0469 0.18033,-0.08509 0.40153,-0.08475 l 0.40204,0.001 0.0258,-0.447001 0.0258,-0.446485 1.24437,0.02325 1.24437,0.02325 0.0418,0.42323 c 0.0454,0.453524 0.0103,0.429047 0.65629,0.457336 0.171,0.0075 0.19069,0.05192 0.19069,0.432015 v 0.42323 h 0.47181 0.4594 v -0.465604 -0.465605 h -0.42323 -0.42323 v -0.419056 -0.419096 l -0.44442,-0.02532 -0.44493,-0.02584 -0.009,-0.406694 -0.009,-0.40721 -1.30328,-5.17e-4 z m 1.29656,1.628325 c -0.079,5.68e-4 -0.15701,0.0054 -0.21704,0.01447 -0.12806,0.0194 -0.0231,0.03566 0.23306,0.03566 0.25614,0 0.3606,-0.01626 0.23254,-0.03566 -0.068,-0.01031 -0.15897,-0.01511 -0.24856,-0.01447 z m 3.90984,0.07545 v 0.465605 0.465604 h -0.42323 -0.41031 l -0.0253,0.402043 -0.0248,0.402043 0.44804,0.04547 c 0.24652,0.0249 0.46762,0.01443 0.49092,-0.02325 0.0233,-0.03768 0.0169,-0.183541 -0.014,-0.324012 -0.0784,-0.357114 0.0716,-0.502295 0.51935,-0.502295 h 0.37104 v -0.465604 -0.465605 h -0.46561 z m -4.44417,0.103353 c -0.0114,0.0053 -0.0191,0.09106 -0.0191,0.235128 0,0.20955 0.0165,0.295461 0.0367,0.190686 0.0202,-0.104775 0.0202,-0.276597 0,-0.381372 -0.006,-0.03274 -0.0124,-0.04687 -0.0176,-0.04444 z m -0.44339,0.668176 c -0.0751,0.0013 -0.14953,0.0058 -0.21135,0.01344 -0.15217,0.01885 -0.0479,0.03463 0.23151,0.03514 0.27968,4.8e-4 0.4037,-0.01479 0.27647,-0.03411 -0.0755,-0.01147 -0.18683,-0.01641 -0.29663,-0.01447 z m 0.57051,0.15968 0.016,0.825273 0.016,0.825789 0.0475,-0.762227 0.047,-0.761711 0.38137,-0.05116 0.38085,-0.05064 -0.44441,-0.0124 z m -0.16485,1.756482 c -0.14531,0.0021 -0.3455,0.02255 -0.51263,0.05891 -0.0699,0.01519 0.0518,0.03181 0.27027,0.03721 0.21844,0.0054 0.41542,-0.02 0.43822,-0.05684 0.0176,-0.02848 -0.0676,-0.04109 -0.19586,-0.03927 z" /><path
       id="path3752"
       style="fill:#000000;stroke-width:0.0846667"
       d="m 104.31405,88.448864 v 0.465605 0.465604 h 0.42374 0.42323 v 0.423747 0.42323 h 0.46561 0.4656 v -0.419096 -0.418579 l -0.44442,-0.02584 -0.44441,-0.02532 -0.0258,-0.444934 -0.0258,-0.444417 h -0.41858 z m 1.77818,1.778186 v 0.888835 0.888834 h 0.42323 0.42323 V 91.115885 90.22705 h -0.42323 z m -2.62464,-0.84646 v 0.42323 0.42323 h 0.42323 0.42323 v -0.42323 -0.42323 h -0.42323 z m 0,0.84646 h -0.46561 -0.4656 v 0.888835 0.889351 h -0.42375 -0.42323 v 0.84491 0.845426 l -2.180233,0.02274 -2.18023,0.02222 -0.0253,0.444417 -0.0258,0.444934 h -0.41858 -0.41909 v 0.42323 0.42323 h 0.42323 0.42323 v 0.419096 0.418579 l 0.44493,0.02584 0.44442,0.02532 0.0253,0.444934 0.0258,0.444417 h 0.41858 0.41909 v 0.42323 0.42323 h 0.42323 0.42323 v 0.888835 0.889351 h -0.42323 -0.42323 v 0.846465 0.84697 h -0.28938 c -0.49275,0 -0.55708,0.0595 -0.55708,0.51677 h 10e-4 c 0,0.45186 0.0319,0.47132 0.58239,0.36121 0.24648,-0.0493 0.26458,-0.0774 0.26458,-0.41237 0,-0.35495 0.004,-0.36069 0.34365,-0.41496 0.18908,-0.0302 0.37953,-0.0327 0.42323,-0.006 0.0979,0.0605 0.11283,-0.065 0.11783,-0.97669 l 0.004,-0.719852 0.444423,-0.02532 0.44493,-0.02584 v -0.884169 -0.875916 l -0.44493,-0.02584 -0.444423,-0.02532 0.005,-0.402042 0.005,-0.40256 h -0.4501 -0.44958 v -0.465604 -0.465605 h -0.42375 -0.42323 v -0.42323 -0.42323 h -0.42323 -0.42323 v -0.42323 -0.423747 h 2.15439 2.154913 l 0.0253,-0.444417 0.0258,-0.444417 h 0.41909 0.41962 l -0.0103,-0.867648 -0.01,-0.868164 h 0.45786 0.45837 v -0.888834 z m 3.4711,1.778186 v 0.874882 0.875399 l 0.40256,-0.0072 0.40204,-0.0078 0.0238,-0.867648 0.0243,-0.867647 h -0.42633 z m 5.24981,1.69292 -2.20142,0.0047 -2.20141,0.0047 v 0.460954 0.46147 h 2.20141 2.20142 v 0.42323 0.42323 h 0.42323 0.42323 v -0.42323 -0.423747 h -0.42323 -0.42323 v -0.465604 z m 0,1.778186 h -0.44442 -0.44493 l 0.0295,0.42323 0.0294,0.42323 h 0.40721 0.42323 v -0.42323 z m -1.77819,0.84646 v 0.466121 0.465605 h -0.42323 -0.42323 v 0.42323 0.42323 h 0.44442 0.44442 v -0.402043 -0.402559 l 0.44442,-0.02532 0.44441,-0.02584 v -0.460953 -0.461471 h -0.45733 z m -0.84646,1.778186 h -0.42374 -0.42323 v 0.888835 0.889351 h 0.42323 0.42374 v 0.888836 0.88883 h 0.42323 0.42323 v 0.36794 0.36794 l -1.2392,0.0532 c -0.68145,0.0294 -1.27176,0.0332 -1.31206,0.008 -0.0403,-0.0249 -0.0734,-0.23346 -0.0734,-0.46354 v -0.41806 h -0.84646 -0.84698 v -0.42375 -0.42323 h -0.42323 -0.42323 v -0.41548 -0.415478 l -0.46612,-0.02894 -0.4656,-0.02894 v 0.444418 0.44442 h 0.42323 0.42374 v 0.41909 0.41858 l 0.44442,0.0258 0.44442,0.0253 0.0253,0.44494 0.0258,0.44441 h 0.84232 0.84233 v 0.42323 0.42323 h 1.31258 1.31206 v -0.42323 -0.42374 h 0.47026 0.47026 l -0.0258,-0.44442 -0.0258,-0.44442 -0.44959,-0.0258 -0.4501,-0.0258 0.0264,-0.84181 0.0269,-0.842323 h -0.44442 -0.44442 v -0.888834 z m -5.2498,2.624642 h -0.44752 -0.44752 l 0.0145,0.38189 c 0.008,0.21014 -0.0238,0.40583 -0.0703,0.4346 -0.0465,0.0288 -0.44201,0.0474 -0.87902,0.0413 l -0.79478,-0.0114 v 0.41651 c 0,0.25408 0.0413,0.43261 0.10594,0.45837 0.0582,0.0232 0.45817,0.0361 0.88883,0.0284 l 0.78342,-0.014 v -0.45268 -0.45269 l 0.42323,0.0295 0.42323,0.0289 v -0.44441 z m 4.40283,-2.624642 v -0.42323 -0.42323 h -0.46561 -0.4656 v 0.42323 0.42323 h 0.4656 z m -7.87239,-0.846977 v 0.427881 0.419096 h 0.42323 0.42323 v -0.42323 -0.423747 h -0.42323 z m -0.54312,5.181079 c -0.23588,-1e-5 -0.463693,0.008 -0.625803,0.0243 l -0.58911,0.0594 -0.009,0.41548 h -5.2e-4 l -0.009,0.41599 h 1.311033 1.31051 v -0.41547 -0.416 l -0.71158,-0.0594 c -0.19579,-0.0163 -0.44004,-0.0243 -0.67593,-0.0243 z"
       data-click-handler="star-click-handler" /><path
       id="path3358"
       style="fill:#000000;stroke-width:0.0846667"
       d="m 119.83042,88.163611 v 0.42323 0.42323 h 4.77645 4.77645 l 0.0284,0.571541 c 0.0153,0.314325 0.0173,1.495405 0.004,2.624646 l -0.0243,2.053105 h -0.42013 -0.42064 v 1.312581 1.312065 h -0.42323 -0.42323 v 0.42323 0.423747 h -0.88935 -0.88884 v 0.465604 0.465605 h -0.42323 -0.42323 v 1.312064 1.312581 h 0.42323 0.42323 v 0.42323 0.42323 h 1.31207 1.31258 v 0.42323 0.42375 h -3.94188 -3.94136 l 0.0258,-0.40256 0.0258,-0.40204 1.31207,-0.0424 1.31258,-0.0424 v -0.38086 -0.38086 l 0.44442,-0.0258 0.44441,-0.0253 v -1.329114 l 5.2e-4,-1.329118 h -0.44493 -0.44442 l -0.006,-0.412895 -0.006,-0.412894 -0.86248,-0.01034 -0.86248,-0.01034 v 0.444418 l 5.2e-4,0.444417 h 0.84646 0.84646 v 1.312064 1.312582 h -1.31206 -1.31259 v 0.42323 0.42323 h -0.42323 -0.42323 v 0.88935 l 10e-4,-5.2e-4 v 0.88936 h 4.82606 4.82606 v -0.88936 -0.88883 h -0.4656 -0.46561 v -0.42323 -0.42323 h -1.31258 -1.31206 v -1.312582 -1.312064 h 0.88883 0.88884 v -0.42323 -0.423747 h 0.42323 0.42374 v -0.465604 -0.465604 h 0.46561 0.4656 v -0.84646 -0.846977 h 1.31207 1.31258 v -0.465605 -0.465604 h 0.42323 0.42323 v -0.42323 -0.42323 h 0.42375 0.42323 v -1.312582 -1.312064 h -0.42323 -0.42375 V 90.36451 89.94128 h -0.41858 -0.4191 l -0.0253,-0.444417 -0.0258,-0.444418 -1.29139,-0.02325 -1.29088,-0.02377 v -0.421163 -0.420646 h -4.82606 z m 0,0.84646 h -1.31207 -1.31258 v 0.465604 0.465605 h -0.42323 -0.42323 v 0.42323 0.423747 h -0.4656 -0.46612 v 1.312064 1.312582 h 0.46612 0.4656 v 0.42323 0.42323 h 0.42323 0.42323 v 0.465604 0.466122 h 1.31258 1.31207 v 0.84646 0.84646 h 0.42323 0.41548 l 0.0253,-1.312065 0.0248,-1.312581 h -0.44441 -0.44442 v -2.624646 z m 0.84698,7.873938 v 0.470255 0.470256 l 0.44441,-0.02584 0.44442,-0.02532 0.0253,-0.444934 0.0258,-0.444417 h -0.47439 z" /><path
       id="path3318"
       style="fill:#000000;stroke-width:0.0846667"
       d="m 82.110227,75.082237 v 0.42375 0.42323 h 12.7 12.700003 v -0.42323 -0.42375 H 94.810227 Z m 26.246973,0.86558 -0.40256,0.0248 -0.40204,0.0253 -0.0253,0.43098 -0.0258,0.43149 h 0.42788 0.42788 v -0.4563 z m 0,0.9126 v 0.42323 0.42323 h 0.42323 0.40153 l 0.0408,-0.42323 0.0408,-0.42323 h -0.45319 z m -27.093433,-0.90537 v 0.45269 0.45268 h 0.42323 0.42323 v -0.42323 c 0,-0.27955 -0.036,-0.42539 -0.10594,-0.42839 -0.0582,-0.003 -0.24861,-0.0161 -0.42323,-0.0295 z m 0,0.90537 h -0.42323 -0.42375 v 0.42323 0.42323 h 0.42375 0.42323 v -0.42323 z m -0.84698,0.84646 h -0.4656 -0.46561 v 1.31259 1.31206 h 0.46561 0.4656 v -1.31206 z m 0,2.62465 v 0.46561 0.4656 l 0.31781,-0.001 c 0.43865,-0.002 0.50489,-0.0663 0.54105,-0.52762 l 0.0315,-0.40256 h -0.44493 z m 4.31808,-3.47111 v 0.42323 0.42323 h 1.35496 1.35444 v -0.42323 -0.42323 h -1.35444 z m 0,0.84646 h -0.42323 -0.42323 v 0.46561 0.46612 h 0.42323 0.42323 v 0.42323 0.42323 h 0.88935 0.88884 v -0.4656 -0.46561 h -0.88935 -0.88884 v -0.42375 z m 1.77819,1.77819 v 0.42323 0.42323 h 0.44958 0.44907 l 0.007,-0.42323 0.006,-0.42323 h -0.45578 z m 0,0.84646 h -1.31258 -1.31207 v 0.46561 0.46612 h 1.31207 1.31258 v -0.46612 z m 1.68723,-3.47111 0.0103,2.20142 0.01,2.20142 h 0.45889 0.45837 v -2.20142 -2.20142 h -0.4687 z m 1.78387,0 v 2.20142 2.20142 h 1.77819 1.77819 v -0.8847 -0.8847 l -0.44494,-0.0253 -0.44441,-0.0258 -0.0253,-0.44442 -0.0258,-0.44442 h -0.41858 -0.4191 v 0.46561 0.4656 h 0.42323 0.42323 v 0.42323 0.42323 h -0.84646 -0.84698 v -1.31206 -1.31259 h 0.84698 0.84646 v -0.42329 -0.42323 h -1.31206 z m 4.40284,0 v 2.20142 2.20142 h 0.44441 0.44442 l -0.0269,-1.31258 -0.0274,-1.31207 h 0.42943 0.42943 v 0.42323 0.42323 h 0.46561 0.4656 v 0.88884 0.88935 h 0.42323 0.42323 v -2.20142 -2.20142 h -0.42323 -0.42323 v 0.83716 0.83716 l -0.23306,0.031 c -0.53109,0.0717 -0.6134,0.0123 -0.6134,-0.44132 v -0.41755 h -0.47387 -0.47387 l 0.0295,-0.42323 0.0289,-0.42323 h -0.44442 z m 6.095753,0 v 2.20142 2.20142 h 0.46612 0.4656 v -2.20142 -2.20142 h -0.4656 z m 1.77818,0 v 2.20142 2.20142 h 0.44442 0.44442 l -0.0253,-1.31258 -0.0253,-1.31207 h 0.42788 0.42736 v 0.42323 0.42323 h 0.46561 0.4656 v 0.88884 0.88935 h 0.42323 0.42375 v -2.20142 -2.20142 h -0.42375 -0.42323 v 0.84646 0.84698 h -0.42323 -0.42323 v -0.42375 -0.42323 h -0.4656 -0.46613 v -0.42323 -0.42323 h -0.42327 z m 6.94273,0.84646 v 1.31259 1.31206 h -0.42323 -0.42323 v 0.42375 0.42323 h -0.41909 -0.4191 l -0.0253,0.44441 -0.0258,0.44442 -12.636443,0.0212 -12.63643,0.0217 -0.0145,-0.19068 c -0.008,-0.10493 -0.0175,-0.30524 -0.0212,-0.44494 -0.006,-0.24569 -0.0211,-0.25477 -0.45114,-0.27957 l -0.44442,-0.0253 v 0.46974 0.47026 h 0.42323 0.42323 v 0.42323 0.42374 h 12.7 12.700003 v -0.42374 -0.42323 h 0.4191 0.41909 l 0.0253,-0.4377 0.0258,-0.43719 0.41548,-0.007 0.41548,-0.007 0.008,-0.42374 0.008,-0.42323 0.44442,-0.0253 0.44442,-0.0258 v -1.30793 -1.30794 h -0.47646 z"
       data-click-handler="sign-in-click-handler" /><path
       style="fill:#000000;stroke-width:0.0846667"
       d="m 173.17598,86.283 c 0.004,-0.0986 0.0241,-0.1187 0.0511,-0.0512 0.0245,0.0611 0.0215,0.13415 -0.007,0.16228 -0.0281,0.0281 -0.0481,-0.0219 -0.0445,-0.11112 z"
       id="path3216" /><path
       style="fill:#000000;stroke-width:0.0846667"
       d="m 121.21572,84.796067 -1.7145,-0.0229 v -0.42158 -0.42158 h -0.889 -0.889 v -0.42334 -0.42333 h -0.42333 -0.42334 v -0.46567 -0.46566 h -0.42333 -0.42333 v -0.42334 -0.42333 h -0.46567 -0.46567 v -0.889 -0.889 h -0.42333 -0.42333 v -1.2999 -1.29991 l 0.42333,0.0407 0.42333,0.0407 v -0.89978 -0.89977 h 0.46567 0.46567 v -0.47206 -0.47206 l 0.40216,0.0251 0.40217,0.0251 0.0256,-0.44202 0.0256,-0.44203 h 0.41891 0.41891 v -0.42333 -0.42334 h 0.88457 0.88458 l 0.0256,-0.4445 c 0.0141,-0.24447 0.0542,-0.43497 0.0891,-0.42333 0.0349,0.0116 0.81597,0.0211 1.73566,0.021 l 1.67217,-1.7e-4 v 0.4023 0.40231 l 0.86783,0.0241 0.86784,0.0241 v 0.42037 0.42037 h 0.42333 0.42333 v 0.42333 0.42334 h 0.46567 0.46567 v 0.46566 0.46567 h -0.46567 -0.46567 v -0.42333 -0.42334 h -0.42333 -0.42333 v -0.46566 -0.46567 h -0.889 -0.889 v -0.42335 -0.42334 h -1.73567 -1.73567 v 0.42334 0.42333 h -0.84224 -0.84224 l -0.0256,0.4445 -0.0256,0.4445 -0.4445,0.0256 -0.4445,0.0256 v 0.41891 0.41891 h -0.42333 -0.42334 v 0.889 0.889 h -0.42333 -0.42333 v 1.27 1.27 h 0.42333 0.42333 v 0.889 0.889 h 0.42334 0.42333 v 0.42333 0.42334 h 0.47173 c 0.43732,0 0.4706,0.0139 0.45629,0.1905 -0.008,0.10477 -0.0112,0.31432 -0.006,0.46566 l 0.009,0.2752 h 0.84667 0.84666 v 0.42333 0.42334 h 1.72823 1.72822 l 0.0567,-0.33556 c 0.0312,-0.18456 0.0323,-0.37506 0.002,-0.42333 -0.0361,-0.0585 0.24422,-0.0878 0.83975,-0.0878 h 0.894 v -0.47206 -0.47207 l 0.37824,0.0233 c 0.20804,0.0128 0.40649,-0.005 0.44101,-0.0395 0.0345,-0.0345 0.0643,-0.22308 0.0662,-0.41903 l 0.004,-0.35628 0.42333,-0.0423 0.42333,-0.0423 0.0423,-0.84667 c 0.0416,-0.83164 0.0461,-0.84686 0.254,-0.85777 0.66169,-0.0347 0.59267,0.11581 0.59267,-1.29217 0,-1.37138 -0.0116,-1.34111 0.508,-1.32497 l 0.29634,0.009 0.0234,1.28835 c 0.0234,1.28831 0.0234,1.28835 -0.16934,1.29838 -0.10599,0.006 -0.22522,0.004 -0.26497,-0.003 -0.0397,-0.007 -0.14453,0.01 -0.23284,0.038 -0.14344,0.0455 -0.16056,0.14063 -0.16056,0.89192 v 0.84096 h -0.42327 -0.42333 v 0.42334 0.42333 h -0.46567 -0.46566 v 0.46567 0.46566 h -0.42334 -0.42333 v 0.42037 0.42037 l -0.86783,0.0241 -0.86784,0.0241 -0.008,0.40285 c -0.004,0.22156 -0.0233,0.41206 -0.0423,0.42333 -0.019,0.0113 -0.80612,0.0102 -1.7491,-0.002 z"
       id="path3130" /></g></svg>
